<svg width="32" height="35" viewBox="0 0 32 35" fill="none" xmlns="http://www.w3.org/2000/svg">
<g clip-path="url(#clip0_195_1654)">
<path d="M4.00004 8.74999V32.0833H28V35H4.00004C3.2928 35 2.61452 34.6927 2.11442 34.1457C1.61433 33.5987 1.33337 32.8569 1.33337 32.0833V8.74999H4.00004ZM21.3334 13.125H28.6667L21.3334 5.10416V13.125ZM9.33337 2.91666H22.6667L30.6667 11.6667V26.25C30.6667 27.0235 30.3858 27.7654 29.8857 28.3124C29.3856 28.8594 28.7073 29.1667 28 29.1667H9.33337C8.62613 29.1667 7.94785 28.8594 7.44776 28.3124C6.94766 27.7654 6.66671 27.0235 6.66671 26.25V5.83332C6.66671 5.05978 6.94766 4.31791 7.44776 3.77093C7.94785 3.22395 8.62613 2.91666 9.33337 2.91666ZM9.33337 5.83332V26.25H28V16.0417H18.6667V5.83332H9.33337Z" fill="black"/>
</g>
<defs>
<clipPath id="clip0_195_1654">
<rect width="32" height="35" fill="white"/>
</clipPath>
</defs>
</svg>