<svg width="30" height="31" viewBox="0 0 30 31" fill="none" xmlns="http://www.w3.org/2000/svg">
<path fill-rule="evenodd" clip-rule="evenodd" d="M11.25 15.5V1.9375H13.125V13.7892L16.3931 11.7606C16.5387 11.6705 16.7053 11.6229 16.875 11.6229C17.0447 11.6229 17.2113 11.6705 17.3569 11.7606L20.625 13.7892V1.9375H22.5V15.5C22.5 15.6714 22.4561 15.8397 22.3726 15.9878C22.2891 16.136 22.169 16.2585 22.0247 16.343C21.8804 16.4275 21.717 16.471 21.5511 16.4689C21.3853 16.4668 21.2229 16.4193 21.0806 16.3312L16.875 13.7233L12.6694 16.3331C12.527 16.4213 12.3644 16.4688 12.1984 16.4708C12.0324 16.4728 11.8688 16.4292 11.7245 16.3445C11.5801 16.2597 11.4601 16.1369 11.3767 15.9885C11.2934 15.8402 11.2496 15.6716 11.25 15.5Z" fill="black"/>
<path d="M5.625 0H24.375C25.3696 0 26.3234 0.408258 27.0267 1.13496C27.7299 1.86166 28.125 2.84729 28.125 3.875V27.125C28.125 28.1527 27.7299 29.1383 27.0267 29.865C26.3234 30.5917 25.3696 31 24.375 31H5.625C4.63044 31 3.67661 30.5917 2.97335 29.865C2.27009 29.1383 1.875 28.1527 1.875 27.125V25.1875H3.75V27.125C3.75 27.6389 3.94754 28.1317 4.29917 28.495C4.65081 28.8584 5.12772 29.0625 5.625 29.0625H24.375C24.8723 29.0625 25.3492 28.8584 25.7008 28.495C26.0525 28.1317 26.25 27.6389 26.25 27.125V3.875C26.25 3.36114 26.0525 2.86833 25.7008 2.50498C25.3492 2.14163 24.8723 1.9375 24.375 1.9375H5.625C5.12772 1.9375 4.65081 2.14163 4.29917 2.50498C3.94754 2.86833 3.75 3.36114 3.75 3.875V5.8125H1.875V3.875C1.875 2.84729 2.27009 1.86166 2.97335 1.13496C3.67661 0.408258 4.63044 0 5.625 0Z" fill="black"/>
<path d="M1.875 9.6875V8.71875C1.875 8.46182 1.97377 8.21542 2.14959 8.03374C2.3254 7.85206 2.56386 7.75 2.8125 7.75C3.06114 7.75 3.2996 7.85206 3.47541 8.03374C3.65123 8.21542 3.75 8.46182 3.75 8.71875V9.6875H4.6875C4.93614 9.6875 5.1746 9.78956 5.35041 9.97124C5.52623 10.1529 5.625 10.3993 5.625 10.6562C5.625 10.9132 5.52623 11.1596 5.35041 11.3413C5.1746 11.5229 4.93614 11.625 4.6875 11.625H0.9375C0.68886 11.625 0.450403 11.5229 0.274587 11.3413C0.0987721 11.1596 0 10.9132 0 10.6562C0 10.3993 0.0987721 10.1529 0.274587 9.97124C0.450403 9.78956 0.68886 9.6875 0.9375 9.6875H1.875ZM1.875 15.5V14.5312C1.875 14.2743 1.97377 14.0279 2.14959 13.8462C2.3254 13.6646 2.56386 13.5625 2.8125 13.5625C3.06114 13.5625 3.2996 13.6646 3.47541 13.8462C3.65123 14.0279 3.75 14.2743 3.75 14.5312V15.5H4.6875C4.93614 15.5 5.1746 15.6021 5.35041 15.7837C5.52623 15.9654 5.625 16.2118 5.625 16.4688C5.625 16.7257 5.52623 16.9721 5.35041 17.1538C5.1746 17.3354 4.93614 17.4375 4.6875 17.4375H0.9375C0.68886 17.4375 0.450403 17.3354 0.274587 17.1538C0.0987721 16.9721 0 16.7257 0 16.4688C0 16.2118 0.0987721 15.9654 0.274587 15.7837C0.450403 15.6021 0.68886 15.5 0.9375 15.5H1.875ZM1.875 21.3125V20.3438C1.875 20.0868 1.97377 19.8404 2.14959 19.6587C2.3254 19.4771 2.56386 19.375 2.8125 19.375C3.06114 19.375 3.2996 19.4771 3.47541 19.6587C3.65123 19.8404 3.75 20.0868 3.75 20.3438V21.3125H4.6875C4.93614 21.3125 5.1746 21.4146 5.35041 21.5962C5.52623 21.7779 5.625 22.0243 5.625 22.2812C5.625 22.5382 5.52623 22.7846 5.35041 22.9663C5.1746 23.1479 4.93614 23.25 4.6875 23.25H0.9375C0.68886 23.25 0.450403 23.1479 0.274587 22.9663C0.0987721 22.7846 0 22.5382 0 22.2812C0 22.0243 0.0987721 21.7779 0.274587 21.5962C0.450403 21.4146 0.68886 21.3125 0.9375 21.3125H1.875Z" fill="black"/>
</svg>